<svg width="53" height="68" viewBox="0 0 53 68" fill="none" xmlns="http://www.w3.org/2000/svg">
  <path d="M15.699 0.0431312C20.1212 0.365261 23.7804 2.39975 26.0907 6.04083C26.4463 3.48563 28.7294 1.61036 31.3395 1.80027L35.302 2.08889C36.894 2.20486 38.3072 3.08005 39.1311 4.39986C40.1164 3.24028 41.6219 2.54924 43.2558 2.66826L47.6009 2.98476C50.321 3.18299 52.3657 5.549 52.1677 8.26915L50.3394 33.3705C49.7697 41.1918 46.777 46.0689 42.9071 53.1754L42.2071 62.7849C42.0089 65.5052 39.643 67.5499 36.9228 67.3517L32.1928 67.0072C30.3013 66.8693 28.7376 65.6826 28.0264 64.0581C27.0873 65.5624 25.3685 66.5101 23.4768 66.3724L7.98497 65.2439C5.26471 65.0457 3.22012 62.6798 3.41818 59.9596L5.24657 34.8581C5.40741 32.6503 3.87074 32.1745 2.62544 30.1992C0.421359 26.7025 -0.273154 22.1503 0.0923259 17.1324C0.457894 12.1138 1.80605 7.69858 4.48561 4.54341C7.30355 1.22547 11.2445 -0.281336 15.699 0.0431312Z" fill="white"/>
  <path d="M13.5117 32.4613C6.82836 31.9745 3.43349 26.6301 4.09936 17.4886C4.76523 8.34696 8.90432 3.4742 15.5877 3.96101C22.271 4.44783 25.6603 9.86896 24.9944 19.0105C24.3286 28.1521 20.1951 32.9481 13.5117 32.4613ZM13.9426 26.5461C16.2088 26.7112 17.4849 24.5645 17.927 18.4958C18.369 12.427 17.423 10.0412 15.1568 9.87616C12.8906 9.71109 11.6089 11.9346 11.1668 18.0033C10.7248 24.0721 11.6764 26.381 13.9426 26.5461Z" fill="#02AFEF"/>
  <path d="M29.1346 32.9814C28.5838 32.9413 28.1698 32.4622 28.2099 31.9114L30.0511 6.63499C30.0912 6.08417 30.5703 5.67016 31.1211 5.71028L35.2393 6.01025C35.6323 6.03888 35.9719 6.29565 36.1065 6.666L39.4345 15.8223C39.8029 16.8358 41.2934 16.6289 41.3717 15.5534L41.9582 7.50231C41.9983 6.95148 42.4774 6.53748 43.0282 6.5776L47.5632 6.90793C48.114 6.94805 48.528 7.42711 48.4879 7.97793L46.6468 33.2544C46.6066 33.8052 46.1276 34.2192 45.5768 34.1791L41.4586 33.8791C41.0655 33.8505 40.726 33.5937 40.5914 33.2233L37.2633 24.067C36.8949 23.0536 35.4044 23.2605 35.3261 24.336L34.7396 32.387C34.6995 32.9379 34.2205 33.3519 33.6696 33.3117L29.1346 32.9814Z" fill="#02AFEF"/>
  <path d="M8.34023 61.4516C7.7894 61.4114 7.3754 60.9324 7.41552 60.3816L9.25666 35.1051C9.29678 34.5543 9.77584 34.1403 10.3267 34.1804L15.2458 34.5387C15.7966 34.5789 16.2106 35.0579 16.1705 35.6087L14.7714 54.8164C14.7313 55.3672 15.1453 55.8462 15.6961 55.8864L24.4562 56.5245C25.007 56.5646 25.421 57.0436 25.3809 57.5945L25.0841 61.6685C25.044 62.2194 24.565 62.6334 24.0141 62.5933L8.34023 61.4516Z" fill="#02AFEF"/>
  <path d="M32.5315 63.2137C31.9807 63.1735 31.5667 62.6945 31.6068 62.1437L32.3578 51.8336C32.3682 51.6915 32.348 51.5488 32.2987 51.4151L26.9131 36.8055C26.6616 36.1234 27.1989 35.4094 27.924 35.4622L32.9888 35.8311C33.4017 35.8612 33.7534 36.1426 33.8733 36.5388L35.5964 42.2325C35.8618 43.1096 37.0688 43.1975 37.4586 42.3682L39.9885 36.9843C40.1646 36.6096 40.5533 36.3821 40.9662 36.4122L46.031 36.7811C46.7561 36.8339 47.1843 37.6182 46.8366 38.2567L39.3907 51.9317C39.3226 52.0569 39.282 52.1951 39.2716 52.3372L38.5206 62.6473C38.4805 63.1981 38.0015 63.6121 37.4506 63.572L32.5315 63.2137Z" fill="#02AFEF"/>
</svg>
